<?xml version="1.0" encoding="UTF-8"?>
<svg width="204px" height="74px" viewBox="0 0 204 74" version="1.1" xmlns="http://www.w3.org/2000/svg" xmlns:xlink="http://www.w3.org/1999/xlink">
    <!-- Generator: Sketch 42 (36781) - http://www.bohemiancoding.com/sketch -->
    <title>Group 3</title>
    <desc>Created with Sketch.</desc>
    <defs></defs>
    <g id="Page-1" stroke="none" stroke-width="1" fill="none" fill-rule="evenodd">
        <g id="Artboard-3" transform="translate(-391.000000, -9.000000)">
            <g id="Group-3" transform="translate(390.000000, 9.000000)">
                <g id="Group-2" transform="translate(33.291209, 37.000000) scale(-1, 1) translate(-33.291209, -37.000000) translate(0.791209, 0.000000)" fill="#36A2C9">
                    <polygon id="Rectangle" fill-opacity="0.65" points="-2.84217094e-14 15.8571429 32.1322255 0 32.1322255 43.3428571 -2.84217094e-14 59.2"></polygon>
                    <polygon id="Rectangle" fill-opacity="0.45" points="15.8027339 23.1514282 47.9349593 7.29428531 47.9349593 50.5685486 15.8027339 66.4942853"></polygon>
                    <polygon id="Rectangle" fill-opacity="0.2" points="32.1322255 30.6571429 64.264451 14.8 64.264451 58.1428571 32.1322255 74"></polygon>
                    <polygon id="Rectangle" fill-opacity="0.2" points="32.1322255 30.6571429 64.264451 14.8 64.264451 58.1428571 32.1322255 74"></polygon>
                    <polygon id="Rectangle" fill-opacity="0.25" transform="translate(32.170228, 58.654265) scale(-1, 1) translate(-32.170228, -58.654265) " points="32.2081656 43.3172416 64.2773113 59.2010969 32.2081656 73.9912894 0.0631440619 58.1343401"></polygon>
                </g>
                <text id="Volksentscheid-Trans" font-family="FiraSans-Book, Fira Sans" font-size="18" font-weight="300" line-spacing="19" fill="#4DA1C0">
                    <tspan x="84" y="35">Volksentscheid</tspan>
                    <tspan x="84" y="54">Transparenz</tspan>
                </text>
            </g>
        </g>
    </g>
</svg>