<?xml version="1.0" encoding="utf-8"?>
<!-- Generator: Adobe Illustrator 21.0.0, SVG Export Plug-In . SVG Version: 6.00 Build 0)  -->
<svg version="1.1" id="Layer_1" xmlns="http://www.w3.org/2000/svg" xmlns:xlink="http://www.w3.org/1999/xlink" x="0px" y="0px"
	 viewBox="0 0 204 74" style="enable-background:new 0 0 204 74;" xml:space="preserve">
<style type="text/css">
	.st0{fill:#36A2C9;fill-opacity:0.65;}
	.st1{fill:#36A2C9;fill-opacity:0.45;}
	.st2{fill:#36A2C9;fill-opacity:0.2;}
	.st3{fill:#36A2C9;fill-opacity:0.25;}
	.st4{fill:#4DA1C0;}
	.st5{font-family:'FiraSans-Light';}
	.st6{font-size:18px;}
	.st7{fill:#36A2C9;}
</style>
<g id="Page-1">
	<g id="Artboard-3" transform="translate(-391.000000, -9.000000)">
		<g id="Group-3" transform="translate(390.000000, 9.000000)">
			
				<g id="Group-2" transform="translate(33.291209, 37.000000) scale(-1, 1) translate(-33.291209, -37.000000) translate(0.791209, 0.000000)">
				<polygon id="Rectangle" class="st0" points="0,15.9 32.1,0 32.1,43.3 0,59.2 				"/>
				<polygon id="Rectangle_1_" class="st1" points="15.8,23.2 47.9,7.3 47.9,50.6 15.8,66.5 				"/>
				<polygon id="Rectangle_2_" class="st2" points="32.1,30.7 64.3,14.8 64.3,58.1 32.1,74 				"/>
				<polygon id="Rectangle_3_" class="st2" points="32.1,30.7 64.3,14.8 64.3,58.1 32.1,74 				"/>
				<polygon id="Rectangle_4_" class="st3" points="32.1,43.3 0.1,59.2 32.1,74 64.3,58.1 				"/>
			</g>
			<text transform="matrix(1 0 0 1 204.5263 35)" class="st4 st5 st6"> </text>
		</g>
	</g>
	<g>
		<g>
			<path class="st7" d="M85.9,24.2v7.4h-1v-7.4h-2.4v-0.9h5.8l-0.1,0.9H85.9z"/>
			<path class="st7" d="M92,25.2l-0.2,1c-0.2,0-0.4-0.1-0.6-0.1c-0.4,0-0.7,0.1-1,0.4c-0.2,0.3-0.4,0.7-0.6,1.4v3.7h-1v-6.3h0.9
				l0.1,1.3c0.2-0.5,0.4-0.8,0.7-1.1c0.3-0.2,0.6-0.4,1-0.4C91.6,25.1,91.8,25.1,92,25.2z"/>
			<path class="st7" d="M97.4,30.7c0.1,0.1,0.2,0.2,0.4,0.3l-0.2,0.7c-0.3,0-0.6-0.1-0.8-0.3s-0.3-0.4-0.4-0.7c-0.4,0.6-1.1,1-1.9,1
				c-0.6,0-1.1-0.2-1.5-0.5s-0.5-0.8-0.5-1.4c0-0.7,0.2-1.2,0.7-1.5c0.5-0.4,1.1-0.5,2-0.5h1v-0.5c0-0.5-0.1-0.8-0.3-1
				c-0.2-0.2-0.6-0.3-1-0.3c-0.5,0-1,0.1-1.7,0.3l-0.3-0.7c0.8-0.3,1.5-0.4,2.1-0.4c0.7,0,1.3,0.2,1.6,0.5s0.5,0.9,0.5,1.5v2.9
				C97.2,30.4,97.3,30.6,97.4,30.7z M96.2,29.9v-1.5h-0.9c-1.2,0-1.8,0.4-1.8,1.3c0,0.4,0.1,0.7,0.3,0.9c0.2,0.2,0.5,0.3,0.9,0.3
				C95.3,30.9,95.9,30.6,96.2,29.9z"/>
			<path class="st7" d="M103.8,25.6c0.3,0.3,0.5,0.8,0.5,1.4v4.5h-1v-4.4c0-0.5-0.1-0.8-0.3-1c-0.2-0.2-0.4-0.3-0.8-0.3
				c-0.4,0-0.7,0.1-0.9,0.3c-0.3,0.2-0.5,0.5-0.8,0.9v4.5h-1v-6.3h0.9l0.1,0.9c0.2-0.3,0.5-0.6,0.9-0.8s0.7-0.3,1.1-0.3
				C103.1,25.1,103.5,25.3,103.8,25.6z"/>
			<path class="st7" d="M109.4,25.3c0.3,0.1,0.7,0.3,1,0.5l-0.4,0.7c-0.3-0.2-0.5-0.4-0.8-0.5c-0.3-0.1-0.5-0.1-0.8-0.1
				c-0.4,0-0.7,0.1-0.9,0.2c-0.2,0.2-0.3,0.4-0.3,0.6c0,0.3,0.1,0.5,0.3,0.6s0.6,0.3,1.1,0.4c0.7,0.2,1.2,0.4,1.6,0.7
				s0.5,0.7,0.5,1.2c0,0.6-0.2,1.1-0.7,1.4c-0.5,0.3-1,0.5-1.7,0.5c-0.9,0-1.7-0.3-2.4-0.8l0.6-0.6c0.5,0.4,1.1,0.6,1.8,0.6
				c0.4,0,0.8-0.1,1-0.3c0.3-0.2,0.4-0.4,0.4-0.7c0-0.2,0-0.4-0.1-0.6c-0.1-0.1-0.2-0.3-0.5-0.4c-0.2-0.1-0.5-0.2-1-0.3
				c-0.7-0.2-1.2-0.4-1.5-0.7s-0.4-0.7-0.4-1.1c0-0.3,0.1-0.6,0.3-0.9c0.2-0.3,0.5-0.5,0.8-0.6c0.3-0.1,0.7-0.2,1.1-0.2
				C108.7,25.1,109,25.2,109.4,25.3z"/>
			<path class="st7" d="M116.7,26c0.4,0.6,0.6,1.4,0.6,2.4c0,1-0.2,1.8-0.6,2.4c-0.4,0.6-1,0.9-1.8,0.9c-0.7,0-1.3-0.2-1.7-0.7v3
				l-1,0.1v-8.8h0.9l0.1,0.9c0.2-0.3,0.5-0.6,0.8-0.8s0.7-0.3,1-0.3C115.8,25.1,116.4,25.4,116.7,26z M116.2,28.4
				c0-1.7-0.5-2.5-1.5-2.5c-0.3,0-0.6,0.1-0.9,0.3c-0.3,0.2-0.5,0.4-0.7,0.7v3.2c0.2,0.3,0.4,0.5,0.6,0.6c0.2,0.1,0.5,0.2,0.8,0.2
				C115.7,30.9,116.2,30,116.2,28.4z"/>
			<path class="st7" d="M123.6,30.7c0.1,0.1,0.2,0.2,0.4,0.3l-0.2,0.7c-0.3,0-0.6-0.1-0.8-0.3s-0.3-0.4-0.4-0.7
				c-0.4,0.6-1.1,1-1.9,1c-0.6,0-1.1-0.2-1.5-0.5c-0.4-0.3-0.5-0.8-0.5-1.4c0-0.7,0.2-1.2,0.7-1.5c0.5-0.4,1.1-0.5,2-0.5h1v-0.5
				c0-0.5-0.1-0.8-0.3-1c-0.2-0.2-0.6-0.3-1-0.3c-0.5,0-1,0.1-1.7,0.3l-0.3-0.7c0.8-0.3,1.5-0.4,2.1-0.4c0.7,0,1.3,0.2,1.6,0.5
				c0.4,0.4,0.5,0.9,0.5,1.5v2.9C123.4,30.4,123.5,30.6,123.6,30.7z M122.4,29.9v-1.5h-0.9c-1.2,0-1.8,0.4-1.8,1.3
				c0,0.4,0.1,0.7,0.3,0.9c0.2,0.2,0.5,0.3,0.9,0.3C121.5,30.9,122.1,30.6,122.4,29.9z"/>
			<path class="st7" d="M129,25.2l-0.2,1c-0.2,0-0.4-0.1-0.6-0.1c-0.4,0-0.7,0.1-1,0.4s-0.4,0.7-0.6,1.4v3.7h-1v-6.3h0.9l0.1,1.3
				c0.2-0.5,0.4-0.8,0.7-1.1s0.6-0.4,1-0.4C128.7,25.1,128.9,25.1,129,25.2z"/>
			<path class="st7" d="M134.9,28.7h-4.1c0,0.7,0.2,1.3,0.5,1.6c0.3,0.3,0.7,0.5,1.2,0.5c0.3,0,0.6,0,0.9-0.1s0.5-0.2,0.8-0.4
				l0.4,0.6c-0.7,0.5-1.4,0.8-2.2,0.8c-0.9,0-1.5-0.3-2-0.9c-0.5-0.6-0.7-1.4-0.7-2.4c0-0.7,0.1-1.2,0.3-1.7
				c0.2-0.5,0.5-0.9,0.9-1.2c0.4-0.3,0.9-0.4,1.4-0.4c0.8,0,1.5,0.3,1.9,0.8c0.4,0.5,0.7,1.3,0.7,2.3
				C134.9,28.4,134.9,28.6,134.9,28.7z M133.9,27.9c0-0.6-0.1-1.1-0.4-1.5c-0.3-0.3-0.6-0.5-1.2-0.5c-0.5,0-0.8,0.2-1.1,0.5
				c-0.3,0.3-0.4,0.9-0.5,1.6L133.9,27.9L133.9,27.9z"/>
			<path class="st7" d="M141.1,25.6c0.3,0.3,0.5,0.8,0.5,1.4v4.5h-1v-4.4c0-0.5-0.1-0.8-0.3-1c-0.2-0.2-0.4-0.3-0.8-0.3
				c-0.4,0-0.7,0.1-0.9,0.3c-0.3,0.2-0.5,0.5-0.8,0.9v4.5h-1v-6.3h0.9l0.1,0.9c0.2-0.3,0.5-0.6,0.9-0.8s0.7-0.3,1.1-0.3
				C140.3,25.1,140.8,25.3,141.1,25.6z"/>
			<path class="st7" d="M144.1,30.7h3.4l-0.1,0.9H143v-0.8l3.3-4.7h-3.1v-0.9h4.2V26L144.1,30.7z"/>
			<path class="st7" d="M153.3,25.6c-0.3,0-0.6,0-1.1,0c0.7,0.3,1.1,0.9,1.1,1.6c0,0.6-0.2,1.1-0.6,1.5s-1,0.6-1.7,0.6
				c-0.3,0-0.6,0-0.8-0.1c-0.1,0.1-0.2,0.2-0.3,0.3c-0.1,0.1-0.1,0.2-0.1,0.4c0,0.4,0.3,0.5,0.9,0.5h1c0.4,0,0.8,0.1,1.1,0.2
				c0.3,0.1,0.6,0.4,0.7,0.6c0.2,0.3,0.3,0.6,0.3,0.9c0,0.6-0.2,1.1-0.7,1.4c-0.5,0.3-1.2,0.5-2.2,0.5c-1,0-1.7-0.2-2.1-0.5
				c-0.4-0.3-0.6-0.8-0.6-1.4h0.9c0,0.3,0.1,0.5,0.2,0.6c0.1,0.2,0.3,0.3,0.5,0.3s0.6,0.1,1.1,0.1c0.7,0,1.2-0.1,1.4-0.3
				s0.4-0.4,0.4-0.8c0-0.3-0.1-0.5-0.3-0.7c-0.2-0.2-0.5-0.2-1-0.2h-1c-0.5,0-0.9-0.1-1.2-0.3c-0.3-0.2-0.4-0.5-0.4-0.8
				c0-0.2,0.1-0.4,0.2-0.6c0.1-0.2,0.3-0.4,0.5-0.5c-0.4-0.2-0.6-0.4-0.8-0.7c-0.2-0.3-0.3-0.6-0.3-1c0-0.4,0.1-0.8,0.3-1.1
				s0.5-0.6,0.9-0.8c0.4-0.2,0.8-0.3,1.2-0.3c0.5,0,0.9,0,1.3,0s0.6-0.1,0.8-0.2c0.2-0.1,0.5-0.2,0.8-0.3l0.3,0.9
				C153.8,25.6,153.5,25.6,153.3,25.6z M149.8,26.2c-0.2,0.3-0.4,0.6-0.4,1c0,0.4,0.1,0.8,0.4,1.1c0.2,0.3,0.6,0.4,1,0.4
				c0.4,0,0.8-0.1,1-0.4c0.2-0.3,0.4-0.6,0.4-1.1s-0.1-0.8-0.4-1.1c-0.2-0.2-0.6-0.4-1-0.4C150.4,25.8,150.1,26,149.8,26.2z"/>
			<path class="st7" d="M159.7,28.7h-4.1c0,0.7,0.2,1.3,0.5,1.6c0.3,0.3,0.7,0.5,1.2,0.5c0.3,0,0.6,0,0.9-0.1s0.5-0.2,0.8-0.4
				l0.4,0.6c-0.7,0.5-1.4,0.8-2.2,0.8c-0.9,0-1.5-0.3-2-0.9c-0.5-0.6-0.7-1.4-0.7-2.4c0-0.7,0.1-1.2,0.3-1.7
				c0.2-0.5,0.5-0.9,0.9-1.2c0.4-0.3,0.9-0.4,1.4-0.4c0.8,0,1.5,0.3,1.9,0.8c0.4,0.5,0.7,1.3,0.7,2.3
				C159.7,28.4,159.7,28.6,159.7,28.7z M158.7,27.9c0-0.6-0.1-1.1-0.4-1.5c-0.3-0.3-0.6-0.5-1.2-0.5c-0.5,0-0.8,0.2-1.1,0.5
				c-0.3,0.3-0.4,0.9-0.5,1.6L158.7,27.9L158.7,27.9z"/>
			<path class="st7" d="M164.4,25.3c0.3,0.1,0.7,0.3,1,0.5l-0.4,0.7c-0.3-0.2-0.5-0.4-0.8-0.5c-0.3-0.1-0.5-0.1-0.8-0.1
				c-0.4,0-0.7,0.1-0.9,0.2c-0.2,0.2-0.3,0.4-0.3,0.6c0,0.3,0.1,0.5,0.3,0.6s0.6,0.3,1.1,0.4c0.7,0.2,1.2,0.4,1.6,0.7
				s0.5,0.7,0.5,1.2c0,0.6-0.2,1.1-0.7,1.4c-0.5,0.3-1,0.5-1.7,0.5c-0.9,0-1.7-0.3-2.4-0.8l0.6-0.6c0.5,0.4,1.1,0.6,1.8,0.6
				c0.4,0,0.8-0.1,1-0.3c0.3-0.2,0.4-0.4,0.4-0.7c0-0.2,0-0.4-0.1-0.6c-0.1-0.1-0.2-0.3-0.5-0.4c-0.2-0.1-0.5-0.2-1-0.3
				c-0.7-0.2-1.2-0.4-1.5-0.7s-0.4-0.7-0.4-1.1c0-0.3,0.1-0.6,0.3-0.9c0.2-0.3,0.5-0.5,0.8-0.6c0.3-0.1,0.7-0.2,1.1-0.2
				C163.7,25.1,164.1,25.2,164.4,25.3z"/>
			<path class="st7" d="M171.9,28.7h-4.1c0,0.7,0.2,1.3,0.5,1.6c0.3,0.3,0.7,0.5,1.2,0.5c0.3,0,0.6,0,0.9-0.1s0.5-0.2,0.8-0.4
				l0.4,0.6c-0.7,0.5-1.4,0.8-2.2,0.8c-0.9,0-1.5-0.3-2-0.9c-0.5-0.6-0.7-1.4-0.7-2.4c0-0.7,0.1-1.2,0.3-1.7
				c0.2-0.5,0.5-0.9,0.9-1.2c0.4-0.3,0.9-0.4,1.4-0.4c0.8,0,1.5,0.3,1.9,0.8c0.4,0.5,0.7,1.3,0.7,2.3
				C171.9,28.4,171.9,28.6,171.9,28.7z M170.9,27.9c0-0.6-0.1-1.1-0.4-1.5c-0.3-0.3-0.6-0.5-1.2-0.5c-0.5,0-0.8,0.2-1.1,0.5
				c-0.3,0.3-0.4,0.9-0.5,1.6L170.9,27.9L170.9,27.9z"/>
			<path class="st7" d="M175.5,31.7c-0.5,0-0.9-0.2-1.2-0.5c-0.3-0.3-0.4-0.7-0.4-1.3V26h-1.1v-0.8h1.1v-1.5l1-0.1v1.6h1.5l-0.1,0.8
				h-1.4v3.9c0,0.3,0.1,0.6,0.2,0.7c0.1,0.2,0.3,0.2,0.6,0.2c0.3,0,0.6-0.1,0.9-0.3l0.4,0.7C176.5,31.6,176,31.7,175.5,31.7z"/>
			<path class="st7" d="M178.4,30.7h3.4l-0.1,0.9h-4.4v-0.8l3.3-4.7h-3.1v-0.9h4.2V26L178.4,30.7z"/>
			<path class="st7" d="M84.8,38c-0.2,0.1-0.2,0.4-0.2,0.7v0.9h1.6l-0.1,0.8h-1.5V46h-1v-5.5h-1.1v-0.8h1.1v-0.9
				c0-0.5,0.2-1,0.5-1.3c0.3-0.3,0.8-0.5,1.4-0.5c0.3,0,0.5,0,0.8,0.1c0.2,0.1,0.5,0.1,0.7,0.2L86.7,38c-0.4-0.2-0.7-0.2-1.1-0.2
				C85.2,37.8,85,37.9,84.8,38z"/>
			<path class="st7" d="M91.6,46l-0.1-1c-0.2,0.4-0.5,0.7-0.8,0.9c-0.3,0.2-0.7,0.3-1.1,0.3c-0.6,0-1-0.2-1.3-0.5
				c-0.3-0.3-0.5-0.8-0.5-1.4v-4.5h1v4.4c0,0.4,0.1,0.8,0.2,1c0.2,0.2,0.4,0.3,0.8,0.3c0.6,0,1.2-0.4,1.6-1.1v-4.5h1V46H91.6z
				 M89.4,37c0.1,0.1,0.2,0.3,0.2,0.5c0,0.2-0.1,0.3-0.2,0.5c-0.1,0.1-0.3,0.2-0.5,0.2s-0.3-0.1-0.5-0.2c-0.1-0.1-0.2-0.3-0.2-0.5
				c0-0.2,0.1-0.3,0.2-0.5c0.1-0.1,0.3-0.2,0.5-0.2S89.2,36.9,89.4,37z M91.8,37c0.1,0.1,0.2,0.3,0.2,0.5c0,0.2-0.1,0.3-0.2,0.5
				c-0.1,0.1-0.3,0.2-0.5,0.2c-0.2,0-0.3-0.1-0.5-0.2c-0.1-0.1-0.2-0.3-0.2-0.5c0-0.2,0.1-0.3,0.2-0.5c0.1-0.1,0.3-0.2,0.5-0.2
				C91.5,36.8,91.7,36.9,91.8,37z"/>
			<path class="st7" d="M98.1,39.6l-0.2,1c-0.2,0-0.4-0.1-0.6-0.1c-0.4,0-0.7,0.1-1,0.4c-0.2,0.3-0.4,0.7-0.6,1.3V46h-1v-6.3h0.9
				l0.1,1.3c0.2-0.5,0.4-0.8,0.7-1.1c0.3-0.2,0.6-0.4,1-0.4C97.7,39.5,97.9,39.5,98.1,39.6z"/>
			<path class="st7" d="M108.2,43.6c0,1.6-1.1,2.3-3.2,2.3h-2.3v-8.3h1.9c1,0,1.8,0.2,2.4,0.5c0.5,0.3,0.8,0.9,0.8,1.6
				c0,0.5-0.1,0.9-0.4,1.2c-0.3,0.3-0.7,0.5-1.1,0.6C107.5,41.8,108.2,42.5,108.2,43.6z M103.7,41.2h1.3c0.5,0,0.9-0.1,1.2-0.4
				c0.3-0.2,0.5-0.6,0.5-1c0-0.5-0.2-0.8-0.5-1s-0.8-0.3-1.5-0.3h-1V41.2z M106.5,44.8c0.4-0.2,0.5-0.6,0.5-1.2c0-0.6-0.2-1-0.5-1.2
				s-0.8-0.4-1.4-0.4h-1.5v3.1h1.2C105.6,45.1,106.2,45,106.5,44.8z"/>
			<path class="st7" d="M114.6,43.1h-4.1c0,0.7,0.2,1.3,0.5,1.6c0.3,0.3,0.7,0.5,1.2,0.5c0.3,0,0.6,0,0.9-0.1
				c0.3-0.1,0.5-0.2,0.8-0.4l0.4,0.6c-0.7,0.5-1.4,0.8-2.2,0.8c-0.9,0-1.5-0.3-2-0.9c-0.5-0.6-0.7-1.4-0.7-2.4
				c0-0.7,0.1-1.2,0.3-1.7s0.5-0.9,0.9-1.2c0.4-0.3,0.9-0.4,1.4-0.4c0.8,0,1.5,0.3,1.9,0.8c0.4,0.5,0.7,1.3,0.7,2.3
				C114.6,42.8,114.6,43,114.6,43.1z M113.6,42.3c0-0.6-0.1-1.1-0.4-1.5c-0.3-0.3-0.6-0.5-1.2-0.5c-0.5,0-0.8,0.2-1.1,0.5
				c-0.3,0.3-0.4,0.9-0.5,1.6L113.6,42.3L113.6,42.3z"/>
			<path class="st7" d="M119.8,39.6l-0.2,1c-0.2,0-0.4-0.1-0.6-0.1c-0.4,0-0.7,0.1-1,0.4s-0.4,0.7-0.6,1.3V46h-1v-6.3h0.9l0.1,1.3
				c0.2-0.5,0.4-0.8,0.7-1.1s0.6-0.4,1-0.4C119.4,39.5,119.6,39.5,119.8,39.6z"/>
			<path class="st7" d="M122.1,45.1c0.1,0.1,0.2,0.1,0.3,0.1s0.3,0,0.4-0.1l0.3,0.7c-0.3,0.1-0.6,0.2-0.9,0.2
				c-0.4,0-0.7-0.1-0.9-0.3c-0.2-0.2-0.3-0.6-0.3-1v-7.6l1-0.1v7.8C122,44.9,122,45,122.1,45.1z"/>
			<path class="st7" d="M125.6,36.9c0.1,0.1,0.2,0.3,0.2,0.5c0,0.2-0.1,0.4-0.2,0.5c-0.1,0.1-0.3,0.2-0.5,0.2
				c-0.2,0-0.4-0.1-0.5-0.2c-0.1-0.1-0.2-0.3-0.2-0.5c0-0.2,0.1-0.4,0.2-0.5c0.1-0.1,0.3-0.2,0.5-0.2
				C125.3,36.7,125.4,36.7,125.6,36.9z M124.6,46v-6.3h1V46H124.6z"/>
			<path class="st7" d="M132.2,40c0.3,0.3,0.5,0.8,0.5,1.4V46h-1v-4.4c0-0.5-0.1-0.8-0.3-1c-0.2-0.2-0.4-0.3-0.8-0.3
				c-0.4,0-0.7,0.1-0.9,0.3c-0.3,0.2-0.5,0.5-0.8,0.9V46h-1v-6.3h0.9l0.1,0.9c0.2-0.3,0.5-0.6,0.9-0.8s0.7-0.3,1.1-0.3
				C131.4,39.5,131.9,39.7,132.2,40z"/>
		</g>
	</g>
</g>
</svg>
