<svg id="Layer_1" data-name="Layer 1" xmlns="http://www.w3.org/2000/svg" viewBox="0 0 204 74"><defs><style>.cls-1,.cls-2,.cls-3,.cls-4,.cls-7{fill:#36a2c9;}.cls-1{fill-opacity:0.65;}.cls-2{fill-opacity:0.45;}.cls-3{fill-opacity:0.2;}.cls-4{fill-opacity:0.25;}.cls-5{isolation:isolate;}.cls-6{font-size:18px;fill:#4da1c0;font-family:FiraSans-Light, Fira Sans;}</style></defs><title>Artboard 1</title><g id="Page-1"><g id="Artboard-3"><g id="Group-3"><g id="Group-2"><polygon id="Rectangle" class="cls-1" points="64.79 15.86 32.66 0 32.66 43.34 64.79 59.2 64.79 15.86"/><polygon id="Rectangle-2" data-name="Rectangle" class="cls-2" points="48.99 23.15 16.86 7.29 16.86 50.57 48.99 66.49 48.99 23.15"/><polygon id="Rectangle-3" data-name="Rectangle" class="cls-3" points="32.66 30.66 0.53 14.8 0.53 58.14 32.66 74 32.66 30.66"/><polygon id="Rectangle-4" data-name="Rectangle" class="cls-3" points="32.66 30.66 0.53 14.8 0.53 58.14 32.66 74 32.66 30.66"/><polygon id="Rectangle-5" data-name="Rectangle" class="cls-4" points="32.66 43.32 64.73 59.2 32.66 73.99 0.51 58.13 32.66 43.32"/></g><g id="Volksentscheid-Trans" class="cls-5"><text class="cls-6" transform="translate(203.53 35)"> </text></g></g></g><path class="cls-7" d="M79.56,25.35V34.1H78.34V25.35H75.52V24.3h6.93l-.14,1.05Z"/><path class="cls-7" d="M86.75,26.52l-.21,1.17a2.69,2.69,0,0,0-.66-.09,1.44,1.44,0,0,0-1.15.51,3.81,3.81,0,0,0-.69,1.6V34.1h-1.2V26.61h1L84,28.17a3,3,0,0,1,.81-1.3A1.8,1.8,0,0,1,86,26.44,2.81,2.81,0,0,1,86.75,26.52Z"/><path class="cls-7" d="M93.13,33.09a.91.91,0,0,0,.48.33l-.28.84a1.94,1.94,0,0,1-.91-.35,1.44,1.44,0,0,1-.48-.8,2.53,2.53,0,0,1-2.25,1.15,2.37,2.37,0,0,1-1.73-.62A2.2,2.2,0,0,1,87.31,32a2.15,2.15,0,0,1,.85-1.83,3.94,3.94,0,0,1,2.4-.63h1.22V29a1.54,1.54,0,0,0-.39-1.17,1.75,1.75,0,0,0-1.22-.36,6.22,6.22,0,0,0-2,.41l-.3-.88a7.17,7.17,0,0,1,2.53-.51,2.67,2.67,0,0,1,2,.63A2.46,2.46,0,0,1,93,28.9v3.47A1.32,1.32,0,0,0,93.13,33.09Zm-1.35-1V30.35H90.71q-2.14,0-2.14,1.59a1.45,1.45,0,0,0,.35,1,1.35,1.35,0,0,0,1,.36A2,2,0,0,0,91.78,32.13Z"/><path class="cls-7" d="M100.8,27a2.4,2.4,0,0,1,.56,1.68V34.1h-1.2V28.9a1.75,1.75,0,0,0-.31-1.18,1.18,1.18,0,0,0-.92-.35,1.8,1.8,0,0,0-1.11.36,3.66,3.66,0,0,0-.89,1V34.1h-1.2V26.61h1l.1,1.13a3.32,3.32,0,0,1,1-1,2.59,2.59,0,0,1,1.32-.34A2.05,2.05,0,0,1,100.8,27Z"/><path class="cls-7" d="M107.39,26.65a4.18,4.18,0,0,1,1.16.64l-.53.8a3.78,3.78,0,0,0-1-.53,2.89,2.89,0,0,0-1-.16,1.77,1.77,0,0,0-1.06.28.9.9,0,0,0-.39.77.85.85,0,0,0,.36.73,4.34,4.34,0,0,0,1.3.52,4.62,4.62,0,0,1,1.86.85,1.84,1.84,0,0,1,.6,1.47,1.9,1.9,0,0,1-.84,1.67,3.5,3.5,0,0,1-2,.58,4.11,4.11,0,0,1-2.81-1l.67-.75a3.21,3.21,0,0,0,2.11.77,2.08,2.08,0,0,0,1.2-.32,1,1,0,0,0,.46-.85,1.05,1.05,0,0,0-.7-1.11,7.73,7.73,0,0,0-1.16-.4,3.83,3.83,0,0,1-1.72-.83,1.79,1.79,0,0,1-.53-1.33,1.7,1.7,0,0,1,.34-1,2.26,2.26,0,0,1,.95-.73,3.37,3.37,0,0,1,1.36-.26A4,4,0,0,1,107.39,26.65Z"/><path class="cls-7" d="M116.14,27.45a5.24,5.24,0,0,1,.67,2.88,4.87,4.87,0,0,1-.75,2.85,2.48,2.48,0,0,1-2.16,1.08,2.42,2.42,0,0,1-2-.88V37l-1.2.14V26.61h1l.1,1a2.9,2.9,0,0,1,1-.9,2.55,2.55,0,0,1,1.23-.31A2.33,2.33,0,0,1,116.14,27.45Zm-.61,2.88q0-2.95-1.77-2.95a1.78,1.78,0,0,0-1,.33,3.09,3.09,0,0,0-.82.86v3.75a2.14,2.14,0,0,0,.74.7,2,2,0,0,0,1,.25Q115.53,33.28,115.53,30.34Z"/><path class="cls-7" d="M124.22,33.09a.91.91,0,0,0,.48.33l-.29.84a1.94,1.94,0,0,1-.91-.35,1.43,1.43,0,0,1-.48-.8,2.53,2.53,0,0,1-2.25,1.15,2.37,2.37,0,0,1-1.73-.62,2.19,2.19,0,0,1-.63-1.64,2.14,2.14,0,0,1,.85-1.83,3.94,3.94,0,0,1,2.4-.63h1.22V29a1.53,1.53,0,0,0-.39-1.17,1.74,1.74,0,0,0-1.22-.36,6.21,6.21,0,0,0-2,.41l-.3-.88a7.17,7.17,0,0,1,2.53-.51,2.67,2.67,0,0,1,2,.63,2.46,2.46,0,0,1,.64,1.83v3.47A1.32,1.32,0,0,0,124.22,33.09Zm-1.35-1V30.35h-1.07q-2.14,0-2.14,1.59a1.45,1.45,0,0,0,.35,1,1.34,1.34,0,0,0,1,.36A2,2,0,0,0,122.88,32.13Z"/><path class="cls-7" d="M130.74,26.52l-.21,1.17a2.68,2.68,0,0,0-.65-.09,1.44,1.44,0,0,0-1.15.51,3.82,3.82,0,0,0-.69,1.6V34.1h-1.2V26.61h1l.11,1.57a3,3,0,0,1,.81-1.3,1.79,1.79,0,0,1,1.21-.44A2.81,2.81,0,0,1,130.74,26.52Z"/><path class="cls-7" d="M137.69,30.76h-4.83a3.09,3.09,0,0,0,.64,1.91,1.87,1.87,0,0,0,1.45.61,3.1,3.1,0,0,0,1-.16,3.78,3.78,0,0,0,1-.51l.53.71a4,4,0,0,1-2.58.94,3,3,0,0,1-2.41-1,4.22,4.22,0,0,1-.87-2.82,5.43,5.43,0,0,1,.37-2.07A3.18,3.18,0,0,1,133,26.94a3,3,0,0,1,3.9.47,4.2,4.2,0,0,1,.78,2.7C137.72,30.34,137.71,30.56,137.69,30.76Zm-1.15-1a2.89,2.89,0,0,0-.46-1.77,1.62,1.62,0,0,0-1.37-.61,1.55,1.55,0,0,0-1.29.61,3.36,3.36,0,0,0-.55,1.88h3.67Z"/><path class="cls-7" d="M145,27a2.39,2.39,0,0,1,.56,1.68V34.1h-1.2V28.9a1.75,1.75,0,0,0-.31-1.18,1.18,1.18,0,0,0-.92-.35,1.8,1.8,0,0,0-1.1.36,3.66,3.66,0,0,0-.89,1V34.1h-1.2V26.61h1l.1,1.13a3.32,3.32,0,0,1,1-1,2.58,2.58,0,0,1,1.32-.34A2.05,2.05,0,0,1,145,27Z"/><path class="cls-7" d="M148.59,33.09h4l-.14,1h-5.21v-.9l4-5.58h-3.63v-1h5v.91Z"/><path class="cls-7" d="M159.46,27.08c-.33,0-.75,0-1.26.06a2,2,0,0,1,1.31,1.92,2.36,2.36,0,0,1-.76,1.82,2.93,2.93,0,0,1-2.06.7,3,3,0,0,1-1-.14.91.91,0,0,0-.31.32.86.86,0,0,0-.11.42q0,.64,1,.64h1.2a3.13,3.13,0,0,1,1.32.26,2.11,2.11,0,0,1,.88.73,1.83,1.83,0,0,1,.31,1,1.88,1.88,0,0,1-.87,1.67,4.68,4.68,0,0,1-2.58.58,4.28,4.28,0,0,1-2.47-.53,2,2,0,0,1-.72-1.7h1.08a1.33,1.33,0,0,0,.18.75,1.12,1.12,0,0,0,.64.41,4.71,4.71,0,0,0,1.28.14,3.56,3.56,0,0,0,1.72-.31,1,1,0,0,0,.52-.92.94.94,0,0,0-.41-.83,2,2,0,0,0-1.15-.29h-1.18a2.2,2.2,0,0,1-1.42-.4,1.23,1.23,0,0,1-.49-1,1.36,1.36,0,0,1,.21-.71,1.86,1.86,0,0,1,.6-.6A2.16,2.16,0,0,1,153.78,29a2.52,2.52,0,0,1,.36-1.35,2.45,2.45,0,0,1,1-.92,3.23,3.23,0,0,1,1.47-.33,11.25,11.25,0,0,0,1.49-.06,5.25,5.25,0,0,0,1-.2,8.88,8.88,0,0,0,.92-.37l.36,1.1A4.29,4.29,0,0,1,159.46,27.08Zm-4,.71a2.07,2.07,0,0,0,0,2.52,1.82,1.82,0,0,0,2.43,0,1.84,1.84,0,0,0,.42-1.3,1.79,1.79,0,0,0-.42-1.28,1.64,1.64,0,0,0-1.25-.44A1.52,1.52,0,0,0,155.42,27.78Z"/><path class="cls-7" d="M167.12,30.76h-4.83a3.09,3.09,0,0,0,.64,1.91,1.87,1.87,0,0,0,1.45.61,3.1,3.1,0,0,0,1-.16,3.78,3.78,0,0,0,1-.51l.53.71a4,4,0,0,1-2.58.94,3,3,0,0,1-2.41-1,4.22,4.22,0,0,1-.87-2.82,5.43,5.43,0,0,1,.37-2.07,3.18,3.18,0,0,1,1.07-1.41,3,3,0,0,1,3.9.47,4.2,4.2,0,0,1,.78,2.7C167.15,30.34,167.14,30.56,167.12,30.76Zm-1.15-1A2.89,2.89,0,0,0,165.5,28a1.62,1.62,0,0,0-1.37-.61,1.55,1.55,0,0,0-1.29.61,3.36,3.36,0,0,0-.55,1.88H166Z"/><path class="cls-7" d="M172.69,26.65a4.18,4.18,0,0,1,1.16.64l-.53.8a3.78,3.78,0,0,0-1-.53,2.89,2.89,0,0,0-1-.16,1.77,1.77,0,0,0-1.06.28.9.9,0,0,0-.39.77.85.85,0,0,0,.36.73,4.34,4.34,0,0,0,1.3.52,4.62,4.62,0,0,1,1.86.85,1.84,1.84,0,0,1,.6,1.47,1.9,1.9,0,0,1-.84,1.67,3.5,3.5,0,0,1-2,.58,4.11,4.11,0,0,1-2.81-1l.67-.75a3.21,3.21,0,0,0,2.11.77,2.08,2.08,0,0,0,1.2-.32,1,1,0,0,0,.46-.85,1.05,1.05,0,0,0-.7-1.11,7.73,7.73,0,0,0-1.16-.4,3.83,3.83,0,0,1-1.72-.83,1.79,1.79,0,0,1-.53-1.33,1.7,1.7,0,0,1,.34-1,2.26,2.26,0,0,1,.95-.73,3.37,3.37,0,0,1,1.36-.26A4,4,0,0,1,172.69,26.65Z"/><path class="cls-7" d="M181.54,30.76h-4.83a3.09,3.09,0,0,0,.64,1.91,1.87,1.87,0,0,0,1.45.61,3.1,3.1,0,0,0,1-.16,3.78,3.78,0,0,0,1-.51l.53.71a4,4,0,0,1-2.58.94,3,3,0,0,1-2.41-1,4.22,4.22,0,0,1-.87-2.82,5.43,5.43,0,0,1,.37-2.07,3.18,3.18,0,0,1,1.07-1.41,3,3,0,0,1,3.9.47,4.2,4.2,0,0,1,.78,2.7C181.57,30.34,181.56,30.56,181.54,30.76Zm-1.15-1a2.89,2.89,0,0,0-.46-1.77,1.62,1.62,0,0,0-1.37-.61,1.55,1.55,0,0,0-1.29.61,3.36,3.36,0,0,0-.55,1.88h3.67Z"/><path class="cls-7" d="M185.83,34.27a1.93,1.93,0,0,1-1.46-.54,2.15,2.15,0,0,1-.52-1.55V27.53h-1.3v-.93h1.3V24.88l1.2-.13v1.85h1.81l-.13.93H185v4.59a1.4,1.4,0,0,0,.22.88.86.86,0,0,0,.72.28,2,2,0,0,0,1-.33l.46.83A2.89,2.89,0,0,1,185.83,34.27Z"/><path class="cls-7" d="M189.33,33.09h4l-.14,1H188v-.9l4-5.58h-3.63v-1h5v.91Z"/><path class="cls-7" d="M78.28,41.76a1.15,1.15,0,0,0-.27.85v1.08h1.85l-.13.92H78v6.56h-1.2V44.62H75.49v-.92h1.32V42.63a2,2,0,0,1,.6-1.52,2.34,2.34,0,0,1,1.68-.57,4.19,4.19,0,0,1,.91.09,4.79,4.79,0,0,1,.87.29l-.38.87a3.23,3.23,0,0,0-1.32-.29A1.24,1.24,0,0,0,78.28,41.76Z"/><path class="cls-7" d="M86.33,51.18,86.23,50a3,3,0,0,1-1,1,2.58,2.58,0,0,1-1.36.34,2,2,0,0,1-1.54-.6,2.42,2.42,0,0,1-.55-1.69V43.69H83v5.24a1.76,1.76,0,0,0,.28,1.13,1.17,1.17,0,0,0,.94.33,2.29,2.29,0,0,0,2-1.34V43.69h1.2v7.49ZM83.65,40.55a.73.73,0,0,1,.21.54.74.74,0,0,1-.21.53.72.72,0,0,1-.54.22.76.76,0,0,1-.55-.21.77.77,0,0,1,0-1.08.76.76,0,0,1,.55-.21A.73.73,0,0,1,83.65,40.55Zm2.91,0a.77.77,0,0,1,0,1.08.76.76,0,0,1-.55.21.75.75,0,0,1-.75-.75.72.72,0,0,1,.22-.54.74.74,0,0,1,.53-.21A.76.76,0,0,1,86.56,40.55Z"/><path class="cls-7" d="M94,43.61l-.21,1.17a2.71,2.71,0,0,0-.66-.08A1.44,1.44,0,0,0,92,45.2a3.81,3.81,0,0,0-.69,1.6v4.39h-1.2V43.69h1l.11,1.57a3,3,0,0,1,.81-1.3,1.8,1.8,0,0,1,1.21-.44A2.84,2.84,0,0,1,94,43.61Z"/><path class="cls-7" d="M106,48.41q0,2.78-3.8,2.78H99.47v-9.8h2.28a5.29,5.29,0,0,1,2.8.61,2.24,2.24,0,0,1,.46,3.28,2.36,2.36,0,0,1-1.3.72Q106,46.37,106,48.41Zm-5.27-2.83h1.6a2.24,2.24,0,0,0,1.42-.43,1.44,1.44,0,0,0,.55-1.21,1.3,1.3,0,0,0-.59-1.22,3.59,3.59,0,0,0-1.79-.35h-1.18ZM104,49.8a1.49,1.49,0,0,0,.64-1.4A1.65,1.65,0,0,0,104,47a2.69,2.69,0,0,0-1.62-.45h-1.72v3.66h1.47A3.64,3.64,0,0,0,104,49.8Z"/><path class="cls-7" d="M113.56,47.85h-4.83a3.09,3.09,0,0,0,.64,1.91,1.86,1.86,0,0,0,1.45.61,3.07,3.07,0,0,0,1-.16,3.78,3.78,0,0,0,1-.51l.53.71a4,4,0,0,1-2.58.94,3,3,0,0,1-2.41-1,4.22,4.22,0,0,1-.87-2.82,5.43,5.43,0,0,1,.37-2.07A3.18,3.18,0,0,1,108.91,44a3,3,0,0,1,3.9.47,4.2,4.2,0,0,1,.78,2.7C113.59,47.42,113.58,47.64,113.56,47.85Zm-1.15-1a2.89,2.89,0,0,0-.46-1.76,1.62,1.62,0,0,0-1.37-.61,1.55,1.55,0,0,0-1.29.61,3.36,3.36,0,0,0-.55,1.88h3.67Z"/><path class="cls-7" d="M119.72,43.61l-.21,1.17a2.71,2.71,0,0,0-.65-.08,1.44,1.44,0,0,0-1.15.51,3.82,3.82,0,0,0-.69,1.6v4.39h-1.2V43.69h1l.11,1.57a3,3,0,0,1,.81-1.3,1.79,1.79,0,0,1,1.21-.44A2.84,2.84,0,0,1,119.72,43.61Z"/><path class="cls-7" d="M122.51,50.2a.44.44,0,0,0,.38.16,1.3,1.3,0,0,0,.48-.08l.31.84a2.45,2.45,0,0,1-1.05.24,1.37,1.37,0,0,1-1.07-.41,1.73,1.73,0,0,1-.37-1.2V40.68l1.2-.14v9.2A.8.8,0,0,0,122.51,50.2Z"/><path class="cls-7" d="M126.61,40.4a.86.86,0,0,1,0,1.18.84.84,0,0,1-.62.24.82.82,0,0,1-.6-.24.86.86,0,0,1,0-1.18.82.82,0,0,1,.6-.24A.84.84,0,0,1,126.61,40.4Zm-1.2,10.79V43.69h1.2v7.49Z"/><path class="cls-7" d="M134.45,44.14a2.39,2.39,0,0,1,.56,1.68v5.37h-1.2V46a1.75,1.75,0,0,0-.31-1.18,1.18,1.18,0,0,0-.92-.35,1.8,1.8,0,0,0-1.1.36,3.67,3.67,0,0,0-.89,1v5.34h-1.2V43.69h1l.1,1.12a3.34,3.34,0,0,1,1-1,2.58,2.58,0,0,1,1.32-.34A2.05,2.05,0,0,1,134.45,44.14Z"/></g></svg>